<mxfile host="app.diagrams.net" agent="Mozilla/5.0 (Macintosh; Intel Mac OS X 10_15_7) AppleWebKit/605.1.15 (KHTML, like Gecko) Version/18.3 Safari/605.1.15" version="26.1.1">
  <diagram name="Page-1" id="z9rHxI_woiEW0ZX1vh7q">
    <mxGraphModel grid="1" page="1" gridSize="10" guides="1" tooltips="1" connect="1" arrows="1" fold="1" pageScale="1" pageWidth="827" pageHeight="1169" math="0" shadow="0">
      <root>
        <mxCell id="0" />
        <mxCell id="1" parent="0" />
        <mxCell id="W1zepS4pD1CFHnPFDKMT-1" value="&lt;font style=&quot;font-size: 18px;&quot;&gt;https://youglish.com&lt;/font&gt;&lt;div&gt;&lt;font style=&quot;font-size: 18px;&quot;&gt;(for English)&lt;/font&gt;&lt;/div&gt;" style="rounded=1;whiteSpace=wrap;html=1;" vertex="1" parent="1">
          <mxGeometry x="314" y="20" width="200" height="80" as="geometry" />
        </mxCell>
        <mxCell id="W1zepS4pD1CFHnPFDKMT-2" value="User Data" style="rounded=1;whiteSpace=wrap;html=1;fillColor=light-dark(#D5E8D4,var(--ge-dark-color, #121212));" vertex="1" parent="1">
          <mxGeometry x="20" y="130" width="120" height="60" as="geometry" />
        </mxCell>
        <mxCell id="W1zepS4pD1CFHnPFDKMT-4" value="&lt;b&gt;- user_ID&amp;nbsp;&lt;/b&gt;&lt;div&gt;- username&lt;/div&gt;&lt;div&gt;- email&lt;/div&gt;&lt;div style=&quot;text-align: left;&quot;&gt;- password hash&lt;/div&gt;&lt;div style=&quot;text-align: left;&quot;&gt;- login time&lt;/div&gt;&lt;div style=&quot;text-align: left;&quot;&gt;- logout time&lt;/div&gt;" style="rounded=0;whiteSpace=wrap;html=1;" vertex="1" parent="1">
          <mxGeometry x="20" y="190" width="120" height="140" as="geometry" />
        </mxCell>
        <mxCell id="W1zepS4pD1CFHnPFDKMT-5" value="Video Metadata" style="rounded=1;whiteSpace=wrap;html=1;fillColor=light-dark(#FFF2CC,var(--ge-dark-color, #121212));" vertex="1" parent="1">
          <mxGeometry x="194" y="130" width="120" height="60" as="geometry" />
        </mxCell>
        <mxCell id="W1zepS4pD1CFHnPFDKMT-6" value="&lt;b&gt;&lt;u&gt;- video_ID&lt;/u&gt;&lt;/b&gt;&lt;div&gt;&lt;b&gt;- &lt;/b&gt;transcripts&lt;br&gt;&lt;div&gt;- start_time&amp;nbsp;&lt;/div&gt;&lt;div&gt;- end_time&amp;nbsp;&lt;br&gt;&lt;/div&gt;&lt;/div&gt;" style="rounded=0;whiteSpace=wrap;html=1;" vertex="1" parent="1">
          <mxGeometry x="194" y="190" width="120" height="90" as="geometry" />
        </mxCell>
        <mxCell id="W1zepS4pD1CFHnPFDKMT-7" value="Words and Phrases" style="rounded=1;whiteSpace=wrap;html=1;fillColor=#ffe6cc;strokeColor=#d79b00;" vertex="1" parent="1">
          <mxGeometry x="370" y="140" width="120" height="60" as="geometry" />
        </mxCell>
        <mxCell id="W1zepS4pD1CFHnPFDKMT-8" value="Search Data" style="rounded=1;whiteSpace=wrap;html=1;fillColor=light-dark(#E1D5E7,var(--ge-dark-color, #121212));" vertex="1" parent="1">
          <mxGeometry x="40" y="390" width="120" height="60" as="geometry" />
        </mxCell>
        <mxCell id="W1zepS4pD1CFHnPFDKMT-9" value="&lt;b&gt;- word_ID&lt;/b&gt;&lt;div&gt;- word/ phrase&lt;br&gt;&lt;div&gt;- language variant/ accent (UK, USA, AUS etc.)&lt;/div&gt;&lt;/div&gt;" style="rounded=0;whiteSpace=wrap;html=1;" vertex="1" parent="1">
          <mxGeometry x="370" y="200" width="120" height="90" as="geometry" />
        </mxCell>
        <mxCell id="W1zepS4pD1CFHnPFDKMT-10" value="&lt;div&gt;&lt;b&gt;- user ID 2&lt;/b&gt;&lt;/div&gt;- last query&lt;div&gt;- time of the last query&lt;br&gt;&lt;div&gt;&lt;div&gt;&lt;div&gt;&lt;br&gt;&lt;/div&gt;&lt;/div&gt;&lt;/div&gt;&lt;/div&gt;" style="rounded=0;whiteSpace=wrap;html=1;" vertex="1" parent="1">
          <mxGeometry x="40" y="450" width="120" height="70" as="geometry" />
        </mxCell>
        <mxCell id="W1zepS4pD1CFHnPFDKMT-18" value="" style="endArrow=classic;html=1;rounded=0;entryX=0.75;entryY=0;entryDx=0;entryDy=0;exitX=-0.01;exitY=0.85;exitDx=0;exitDy=0;exitPerimeter=0;" edge="1" parent="1" source="W1zepS4pD1CFHnPFDKMT-1" target="W1zepS4pD1CFHnPFDKMT-2">
          <mxGeometry width="50" height="50" relative="1" as="geometry">
            <mxPoint x="310" y="60" as="sourcePoint" />
            <mxPoint x="140" y="40" as="targetPoint" />
          </mxGeometry>
        </mxCell>
        <mxCell id="W1zepS4pD1CFHnPFDKMT-19" value="" style="endArrow=classic;html=1;rounded=0;entryX=0.5;entryY=0;entryDx=0;entryDy=0;" edge="1" parent="1" target="W1zepS4pD1CFHnPFDKMT-5">
          <mxGeometry width="50" height="50" relative="1" as="geometry">
            <mxPoint x="314" y="100" as="sourcePoint" />
            <mxPoint x="440" y="280" as="targetPoint" />
          </mxGeometry>
        </mxCell>
        <mxCell id="W1zepS4pD1CFHnPFDKMT-20" value="" style="endArrow=classic;html=1;rounded=0;" edge="1" parent="1" source="W1zepS4pD1CFHnPFDKMT-1" target="W1zepS4pD1CFHnPFDKMT-7">
          <mxGeometry width="50" height="50" relative="1" as="geometry">
            <mxPoint x="390" y="330" as="sourcePoint" />
            <mxPoint x="440" y="280" as="targetPoint" />
          </mxGeometry>
        </mxCell>
        <mxCell id="W1zepS4pD1CFHnPFDKMT-21" value="" style="endArrow=classic;html=1;rounded=0;exitX=0.5;exitY=1;exitDx=0;exitDy=0;entryX=0.5;entryY=0;entryDx=0;entryDy=0;" edge="1" parent="1" source="W1zepS4pD1CFHnPFDKMT-4" target="W1zepS4pD1CFHnPFDKMT-8">
          <mxGeometry width="50" height="50" relative="1" as="geometry">
            <mxPoint x="390" y="330" as="sourcePoint" />
            <mxPoint x="440" y="280" as="targetPoint" />
          </mxGeometry>
        </mxCell>
        <mxCell id="ika3B-qeQfDga5adC5Cc-1" value="Word Class" style="rounded=1;whiteSpace=wrap;html=1;" vertex="1" parent="1">
          <mxGeometry x="394" y="350" width="120" height="60" as="geometry" />
        </mxCell>
        <mxCell id="ika3B-qeQfDga5adC5Cc-2" value="&lt;div&gt;&lt;b&gt;- word_ID_2&lt;/b&gt;&lt;/div&gt;&lt;div&gt;- word&lt;/div&gt;- Noun, Verb etc.&lt;div&gt;- gender (male/ female pronunciation)&lt;/div&gt;" style="rounded=0;whiteSpace=wrap;html=1;" vertex="1" parent="1">
          <mxGeometry x="394" y="410" width="120" height="110" as="geometry" />
        </mxCell>
        <mxCell id="ika3B-qeQfDga5adC5Cc-3" style="edgeStyle=orthogonalEdgeStyle;rounded=0;orthogonalLoop=1;jettySize=auto;html=1;exitX=0.5;exitY=1;exitDx=0;exitDy=0;" edge="1" parent="1" source="W1zepS4pD1CFHnPFDKMT-10" target="W1zepS4pD1CFHnPFDKMT-10">
          <mxGeometry relative="1" as="geometry" />
        </mxCell>
        <mxCell id="ika3B-qeQfDga5adC5Cc-9" style="edgeStyle=orthogonalEdgeStyle;rounded=0;orthogonalLoop=1;jettySize=auto;html=1;exitX=0.5;exitY=1;exitDx=0;exitDy=0;" edge="1" parent="1" source="W1zepS4pD1CFHnPFDKMT-4" target="W1zepS4pD1CFHnPFDKMT-4">
          <mxGeometry relative="1" as="geometry" />
        </mxCell>
        <mxCell id="ika3B-qeQfDga5adC5Cc-10" style="edgeStyle=orthogonalEdgeStyle;rounded=0;orthogonalLoop=1;jettySize=auto;html=1;exitX=0.5;exitY=1;exitDx=0;exitDy=0;" edge="1" parent="1" source="W1zepS4pD1CFHnPFDKMT-6" target="W1zepS4pD1CFHnPFDKMT-6">
          <mxGeometry relative="1" as="geometry" />
        </mxCell>
        <mxCell id="H9B7piF7PQXgsnzx1Df8-3" value="" style="endArrow=classic;html=1;rounded=0;" edge="1" parent="1" source="W1zepS4pD1CFHnPFDKMT-9" target="ika3B-qeQfDga5adC5Cc-1">
          <mxGeometry width="50" height="50" relative="1" as="geometry">
            <mxPoint x="90" y="340" as="sourcePoint" />
            <mxPoint x="110" y="400" as="targetPoint" />
          </mxGeometry>
        </mxCell>
        <mxCell id="H9B7piF7PQXgsnzx1Df8-7" value="" style="endArrow=classic;html=1;rounded=0;entryX=1;entryY=0.5;entryDx=0;entryDy=0;exitX=-0.017;exitY=0.411;exitDx=0;exitDy=0;exitPerimeter=0;" edge="1" parent="1" source="W1zepS4pD1CFHnPFDKMT-9" target="W1zepS4pD1CFHnPFDKMT-6">
          <mxGeometry width="50" height="50" relative="1" as="geometry">
            <mxPoint x="360" y="235" as="sourcePoint" />
            <mxPoint x="110" y="400" as="targetPoint" />
          </mxGeometry>
        </mxCell>
      </root>
    </mxGraphModel>
  </diagram>
</mxfile>
